<svg viewBox="0 0 115 16" xmlns="http://www.w3.org/2000/svg">
<path d="M8.81023 15.9276C14.0975 15.9276 17.4691 14.2737 17.4691 11.0978C17.4691 3.94095 3.7627 8.37727 3.7627 4.54817C3.7627 3.24185 5.6343 2.58868 8.89612 2.58868C12.0741 2.58868 14.0735 3.63335 14.0535 5.24328H17.2075C17.1875 2.08932 13.8797 0 8.78826 0C3.98042 0 0.63071 1.69783 0.63071 4.80984C0.63071 11.8808 14.3591 7.11489 14.3591 11.2276C14.3591 12.6638 12.3797 13.3169 8.6804 13.3169C5.39461 13.3169 3.45909 12.2723 3.48106 10.6843H0.259186C0.21724 13.7943 3.50103 15.9276 8.81023 15.9276ZM20.6211 15.578H23.7092V5.11345L29.9112 15.578H30.4985L36.7205 5.04753V15.578H39.8105V0.347555H36.307L30.2148 10.944L24.1226 0.347555H20.6211V15.578ZM60.4601 15.578H64.0295L54.7374 0.347555H51.4296L42.1615 15.578H45.7309L47.6225 12.3582H58.5685L60.4601 15.578ZM49.1665 9.74751L53.1055 3.06807L57.0225 9.74751H49.1665ZM66.3785 15.578H79.6515V12.9674H69.4685V0.347555H66.3785V15.578ZM82.2182 15.578H95.4892V12.9674H85.3083V0.347555H82.2182V15.578ZM105.76 15.9276C111.047 15.9276 114.421 14.2737 114.421 11.0978C114.421 3.94095 100.713 8.37727 100.713 4.54817C100.713 3.24185 102.584 2.58868 105.848 2.58868C109.024 2.58868 111.025 3.63335 111.005 5.24328H114.159C114.137 2.08932 110.83 0 105.738 0C100.93 0 97.5785 1.69783 97.5785 4.80984C97.5785 11.8808 111.309 7.11489 111.309 11.2276C111.309 12.6638 109.329 13.3169 105.63 13.3169C102.344 13.3169 100.409 12.2723 100.431 10.6843H97.209C97.1651 13.7943 100.451 15.9276 105.76 15.9276Z" />
</svg>
