<svg width="135" height="135" viewBox="0 0 135 135" fill="none" xmlns="http://www.w3.org/2000/svg">
<g clip-path="url(#clip0)">
<path d="M87.4855 101.048C87.4855 101.048 85.8513 105.981 81.4048 108.793L87.4855 101.048Z" fill="#FFE95A"/>
<path d="M87.4855 101.048C87.4855 101.048 85.8513 105.981 81.4048 108.793" stroke="black" stroke-miterlimit="10"/>
<path d="M89.6212 102.895C89.6212 102.895 87.4854 108.17 83.9434 110.86L89.6212 102.895Z" fill="#FFE95A"/>
<path d="M89.6212 102.895C89.6212 102.895 87.4854 108.17 83.9434 110.86" stroke="black" stroke-miterlimit="10"/>
<path d="M58.6171 75.1133C58.6171 75.1133 55.3791 70.4463 56.5193 63.0126C57.6594 55.5789 60.4261 56.6278 60.0461 47.6739C60.0461 47.6739 59.286 43.197 56.1392 39.4801C56.1392 39.4801 53.2813 34.6231 55.5692 29.9562C57.857 25.2892 61.2851 18.3344 60.8062 12.8997C60.3273 7.47263 56.9981 5.37478 59.3772 0.897836C59.3772 0.897836 60.0461 -0.721161 62.4252 1.08786C62.4252 1.08786 64.9943 4.61469 65.6632 10.4218C66.3321 16.2289 66.7121 17.4755 65.1843 20.9035C63.6565 24.3315 60.6086 26.9994 60.5174 32.9053C60.4185 38.8112 64.9487 41.8592 65.5188 47.5751C66.0888 53.291 65.0931 55.8677 63.3753 60.2915C61.6575 64.7228 60.8062 67.862 62.2352 71.7232C63.6641 75.5845 63.6641 75.1057 63.6641 75.1057" fill="#FFE95A"/>
<path d="M58.6171 75.1133C58.6171 75.1133 55.3791 70.4463 56.5193 63.0126C57.6594 55.5789 60.4261 56.6278 60.0461 47.6739C60.0461 47.6739 59.286 43.197 56.1392 39.4801C56.1392 39.4801 53.2813 34.6231 55.5692 29.9562C57.857 25.2892 61.2851 18.3344 60.8062 12.8997C60.3273 7.47263 56.9981 5.37478 59.3772 0.897836C59.3772 0.897836 60.0461 -0.721161 62.4252 1.08786C62.4252 1.08786 64.9943 4.61469 65.6632 10.4218C66.3321 16.2289 66.7121 17.4754 65.1843 20.9035C63.6565 24.3315 60.6086 26.9994 60.5174 32.9053C60.4185 38.8112 64.9487 41.8592 65.5188 47.5751C66.0888 53.291 65.0931 55.8677 63.3753 60.2914C61.6575 64.7228 60.8062 67.862 62.2352 71.7232C63.6641 75.5845 63.6641 75.1057 63.6641 75.1057" stroke="black" stroke-miterlimit="10"/>
<path d="M47.7478 89.1825L17.4809 99.6642C17.4809 99.6642 11.2253 101.032 12.5707 105.008C12.5707 105.008 14.0453 108.04 20.5669 105.753L38.9155 100.029C38.9155 100.029 42.1763 98.1136 46.6152 100.82C51.0542 103.525 56.1848 108.831 67.0389 107.486C77.893 106.14 81.2982 99.5046 81.2982 99.5046C81.2982 99.5046 83.1985 95.4989 90.1153 96.6238C97.0246 97.7488 121.91 100.736 121.91 100.736C121.91 100.736 126.265 101.542 126.645 98.6989C127.079 95.4305 121.872 94.6248 121.872 94.6248L96.8953 90.6039C96.8953 90.6039 88.1999 89.0989 76.5325 88.5441" fill="#FFE95A"/>
<path d="M47.7478 89.1825L17.4809 99.6642C17.4809 99.6642 11.2253 101.032 12.5707 105.008C12.5707 105.008 14.0453 108.04 20.5669 105.753L38.9155 100.029C38.9155 100.029 42.1763 98.1136 46.6152 100.82C51.0542 103.525 56.1848 108.831 67.0389 107.486C77.893 106.14 81.2982 99.5046 81.2982 99.5046C81.2982 99.5046 83.1985 95.4989 90.1153 96.6238C97.0246 97.7488 121.91 100.736 121.91 100.736C121.91 100.736 126.265 101.542 126.645 98.6989C127.079 95.4305 121.872 94.6248 121.872 94.6248L96.8953 90.6039C96.8953 90.6039 88.1999 89.0989 76.5325 88.5441" stroke="black" stroke-miterlimit="10"/>
<path d="M7.94164 106.475C7.94164 106.475 6.07181 101.625 9.2642 99.307" stroke="black" stroke-miterlimit="10"/>
<path d="M5.00008 101.139C5.00008 101.139 4.94687 97.4979 7.59199 96.5326" stroke="black" stroke-miterlimit="10" stroke-linecap="round" stroke-linejoin="round"/>
<path d="M30.4329 61.3783C28.6923 60.7854 24.3598 61.4999 21.7602 59.6073C19.0771 57.6463 13.6425 58.5584 11.1646 62.4576C8.68665 66.3569 13.0192 70.0281 12.3807 73.593C11.9398 76.0557 12.9128 80.4946 18.2182 81.0267C23.5313 81.5587 24.7702 76.6029 26.5336 75.7136C28.297 74.8243 33.2604 73.0609 34.6742 69.3441C36.0956 65.6272 33.2604 61.9104 30.4329 61.3783Z" fill="#FFE95A" stroke="black" stroke-miterlimit="10"/>
<path d="M113.45 93.4238L112.728 99.6794" stroke="black" stroke-miterlimit="10"/>
<path d="M22.3149 98.1364L24.7928 104.308" stroke="black" stroke-miterlimit="10"/>
<path d="M91.8635 133.618C91.8635 133.618 88.8612 132.903 88.5799 129.475C88.2987 126.047 90.579 124.763 93.1557 124.048C95.7248 123.334 99.8749 121.479 101.874 119.472C103.873 117.473 106.016 115.9 110.303 116.47C114.59 117.04 115.016 119.617 119.31 119.472C123.605 119.328 127.314 118.332 129.032 122.619C130.75 126.906 127.747 129.475 125.46 129.908C123.172 130.334 118.604 132.911 117.311 133.625C116.027 134.34 112.166 135.054 109.596 133.77C107.027 132.485 104.451 132.052 101.448 132.911C98.4383 133.754 95.1547 134.613 91.8635 133.618Z" fill="#FFE95A" stroke="black" stroke-miterlimit="10"/>
<path d="M74.5259 79.119L86.2465 74.6876" stroke="black" stroke-miterlimit="10"/>
<path d="M75.0959 81.2624L87.2422 79.1189" stroke="black" stroke-miterlimit="10"/>
<path d="M69.6689 75.0372H53.6614C53.6614 75.0372 52.0196 75.0372 51.5863 73.4334C51.1607 71.8296 50.3018 66.7978 50.3018 66.7978C50.3018 66.7978 49.9445 65.1636 49.0856 65.194C47.7251 65.232 47.0106 66.1745 46.6533 68.1964C46.2961 70.2258 43.8638 83.2234 49.6557 91.326C49.6557 91.326 51.9436 95.9398 62.0908 95.9398C79.5273 95.9398 78.0224 80.5631 77.5967 74.2771C77.171 67.9912 76.1677 65.5437 75.0276 65.3308C73.8874 65.118 73.0285 65.9617 72.8157 67.7783C72.6029 69.595 72.2457 73.3726 71.8124 74.0643C71.3791 74.756 71.4552 75.0372 69.6689 75.0372Z" fill="#FFE95A" stroke="black" stroke-miterlimit="10"/>
<path d="M48.0897 81.1179C46.8736 80.9735 36.0879 80.9735 36.0879 80.9735L48.0897 81.1179Z" fill="#FFE95A"/>
<path d="M48.0897 81.1179C46.8736 80.9735 36.0879 80.9735 36.0879 80.9735" stroke="black" stroke-miterlimit="10"/>
<path d="M48.2267 84.2648L36.2249 86.4082" stroke="black" stroke-miterlimit="10"/>
<path d="M53.6614 81.8324C53.6614 81.8324 54.2999 83.9759 56.4585 83.8314C58.6172 83.687 59.2557 82.6913 59.3773 81.688" fill="#FFE95A"/>
<path d="M53.6614 81.8324C53.6614 81.8324 54.2999 83.9759 56.4585 83.8314C58.6172 83.687 59.2557 82.6913 59.3773 81.688" stroke="black" stroke-miterlimit="10"/>
<path d="M63.5195 81.2623C63.5195 81.2623 64.158 83.4058 66.3167 83.2614C68.4753 83.117 69.1138 82.1212 69.2354 81.1179" fill="#FFE95A"/>
<path d="M63.5195 81.2623C63.5195 81.2623 64.158 83.4058 66.3167 83.2614C68.4753 83.117 69.1138 82.1212 69.2354 81.1179" stroke="black" stroke-miterlimit="10"/>
</g>
<defs>
<clipPath id="clip0">
<rect width="135" height="135" fill="white"/>
</clipPath>
</defs>
</svg>
